<svg width="60" height="56" fill="none" xmlns="http://www.w3.org/2000/svg"><path d="M40.9128 41.251c-.5274 0-1.0331-.2237-1.4061-.6219-.3729-.3982-.5824-.9383-.5824-1.5014 0-.5632.2095-1.1033.5824-1.5015.373-.3982.8787-.6219 1.4061-.6219h8.566c.9306-.0002 1.8473-.2404 2.6724-.6999.8251-.4596 1.5341-1.125 2.0668-1.9398.5327-.8147.8734-1.7548.9931-2.7402.1197-.9854.0149-1.9871-.3056-2.92-.3204-.933-.847-1.7695-1.535-2.4386s-1.5171-1.151-2.4168-1.4048a5.4278 5.4278 0 0 0-2.7513-.0528c-.9076.2191-1.7524.6689-2.4625 1.3111l.0088-.007c-.4046.3458-.9195.5095-1.4352.4563-.5158-.0531-.9919-.319-1.327-.7409-.3352-.422-.503-.9669-.4679-1.5189.0351-.5521.2704-1.0677.6559-1.4375l.0022-.0023c1.3086-1.1857 2.8883-1.9796 4.578-2.3007l.059-.0093c-.0213-3.5021-1.0911-6.9052-3.0531-9.7117-1.962-2.8065-4.7133-4.8692-7.8517-5.8867-3.1384-1.0174-6.4993-.9363-9.5914.2317-3.0921 1.1679-5.7532 3.3614-7.5944 6.2597l-.035.0583c1.5043.5695 2.9079 1.4057 4.1519 2.4734l-.0284-.0234c.3242.2734.5608.6477.6769 1.0711a2.2633 2.2633 0 0 1-.029 1.2917c-.135.4169-.3881.7787-.7242 1.0351-.3361.2565-.7387.3949-1.1518.3961-.4592.0016-.9045-.1684-1.2587-.4806l.0044.0023c-1.8219-1.5746-4.0959-2.4315-6.4397-2.4267h-.0306c-2.7506 0-5.3863 1.1668-7.3312 3.2435-1.9449 2.0768-3.0375 4.8935-3.0375 7.8305 0 2.937 1.0926 5.7538 3.0375 7.8305 1.945 2.0768 4.5828 3.2435 7.3334 3.2435h4.5736c.5273 0 1.0331.2237 1.406.6219.373.3982.5825.9383.5825 1.5015 0 .5631-.2095 1.1032-.5825 1.5014-.3729.3982-.8787.6219-1.406.6219h-4.5802c-3.8059 0-7.4559-1.6144-10.147-4.488C2.0162 33.8824.5043 29.9849.5043 25.921c0-4.0639 1.5119-7.9614 4.203-10.835 2.6912-2.8736 6.3412-4.488 10.1471-4.488.2229 0 .4414.0187.6665.0303C18.8927 4.242 25.2035 0 32.4409 0c5.1336.0006 10.0569 2.1783 13.6871 6.0542 3.6303 3.876 5.6703 9.1328 5.6714 14.6145v.042c4.3005 1.1526 7.4362 5.243 7.4362 10.1173-.0006 2.7623-1.0285 5.4113-2.8577 7.3645-1.8292 1.9533-4.31 3.0509-6.897 3.0515l-8.5681.007ZM27.876 39.1277V29.358l-2.2485 2.4033c-.3733.3983-.8794.6219-1.407.6216-.5276-.0002-1.0335-.2242-1.4065-.6227-.3729-.3986-.5823-.939-.5821-1.5024.0002-.5633.21-1.1036.5832-1.5018l5.6444-6.0293a2.1998 2.1998 0 0 1 .4152-.3314l.0109-.0046a.8595.8595 0 0 1 .1114-.0607 2.0993 2.0993 0 0 1 .4502-.1843l.0131-.0024h.0218a2.0466 2.0466 0 0 1 .5136-.0256h-.0066.0219a.4192.4192 0 0 1 .1092.014h-.0022c.1865.0233.3599.0707.5201.1423l-.0131-.0047c.1077.0501.2115.1094.3103.1774l-.0066-.0047.0831.0607c.075.0573.1465.1196.2141.1866l.0481.042 5.6487 6.0294c.1848.1971.3314.4313.4315.6889.1001.2577.1516.5339.1517.8129a2.2496 2.2496 0 0 1-.1511.813 2.1399 2.1399 0 0 1-.431.6893 1.986 1.986 0 0 1-.6453.4608 1.881 1.881 0 0 1-.7612.162 1.8796 1.8796 0 0 1-.7614-.1614 1.9845 1.9845 0 0 1-.6455-.4602l-2.2508-2.4033v9.7766c0 .5632-.2095 1.1033-.5824 1.5015-.3729.3982-.8787.6219-1.4061.6219-.5274 0-1.0332-.2237-1.4061-.6219s-.5824-.9383-.5824-1.5015l-.0066-.0116Z" fill="#fff"/></svg>