<svg width="56" height="56" fill="none" xmlns="http://www.w3.org/2000/svg"><path d="M8.9576 13.6687c6.86-9.1373 21.07-11.795 31.1826-5.5066 9.9867 6.2066 13.6594 18.1463 9.5667 29.3463-3.8617 10.577-14.0373 14.7653-21.371 9.4453-2.7463-1.9926-3.8127-4.4916-4.326-8.5493l-.2473-2.303-.105-.9287c-.287-2.1793-.7257-3.1546-1.645-3.668-1.2484-.6953-2.0814-.7116-3.7217-.077l-.819.3407-.4177.182c-2.366 1.0267-3.9386 1.3883-5.929.9707l-.4666-.1097-.3827-.1097c-6.5077-2.016-7.4713-10.843-1.3183-19.033Zm2.296 15.6707.287.0863.3126.07c1.0244.203 1.8994.035 3.353-.5646l1.4047-.5997c2.8047-1.1503 4.6317-1.26 7.1073.1167 2.1397 1.1946 2.975 3.0286 3.3997 6.2066l.1237 1.071.1283 1.2414.1097.9846c.4013 3.1757 1.1316 4.8767 2.912 6.1694 5.3083 3.85 12.9126.721 16.03-7.8144 3.5373-9.688.406-19.866-8.1294-25.1743-8.575-5.3293-20.7643-3.0473-26.537 4.6363-4.8416 6.447-4.2466 12.32-.5016 13.5707Zm26.1916-4.6527a2.918 2.918 0 0 1 .253-2.2521 2.9169 2.9169 0 0 1 4.8914-.3054 2.917 2.917 0 0 1 .1602 3.2215 2.9166 2.9166 0 0 1-5.3046-.664Zm1.1527 8.1387a2.9177 2.9177 0 0 1 .2915-2.2134 2.9167 2.9167 0 0 1 4.8402-.317 2.9173 2.9173 0 0 1 .2118 3.2341 2.9169 2.9169 0 0 1-5.3435-.7037Zm-5.768-15.1457a2.9168 2.9168 0 1 1 5.635-1.5096 2.9168 2.9168 0 0 1-5.635 1.5096Zm-.0653 20.9954a2.9158 2.9158 0 0 1 1.0069-3.1287 2.9163 2.9163 0 0 1 2.1891-.5867 2.9168 2.9168 0 0 1 .3563 5.7065 2.9163 2.9163 0 0 1-3.5523-1.9911Zm-8.1597-23.2634a2.9161 2.9161 0 0 1 .2795-2.2264 2.9166 2.9166 0 1 1-.2795 2.2264Z" fill="#fff"/></svg>