<svg width="56" height="56" fill="none" xmlns="http://www.w3.org/2000/svg"><path d="M0 1.75A1.75 1.75 0 0 1 1.75 0h10.5a1.75 1.75 0 0 1 0 3.5H3.5v8.75a1.75 1.75 0 0 1-3.5 0V1.75Zm42 0A1.75 1.75 0 0 1 43.75 0h10.5A1.75 1.75 0 0 1 56 1.75v10.5a1.75 1.75 0 0 1-3.5 0V3.5h-8.75A1.75 1.75 0 0 1 42 1.75ZM1.75 42a1.75 1.75 0 0 1 1.75 1.75v8.75h8.75a1.75 1.75 0 0 1 0 3.5H1.75A1.75 1.75 0 0 1 0 54.25v-10.5A1.75 1.75 0 0 1 1.75 42Zm52.5 0A1.75 1.75 0 0 1 56 43.75v10.5A1.75 1.75 0 0 1 54.25 56h-10.5a1.75 1.75 0 0 1 0-3.5h8.75v-8.75A1.75 1.75 0 0 1 54.25 42ZM14 14h3.5v3.5H14V14Z" fill="#fff"/><path d="M24.5 7H7v17.5h17.5V7Zm-14 3.5H21V21H10.5V10.5Zm7 28H14V42h3.5v-3.5Z" fill="#fff"/><path d="M24.5 31.5H7V49h17.5V31.5Zm-14 3.5H21v10.5H10.5V35Zm28-21H42v3.5h-3.5V14Z" fill="#fff"/><path d="M31.5 7H49v17.5H31.5V7Zm3.5 3.5V21h10.5V10.5H35ZM28 28v7h3.5v3.5H28V42h7v-7h3.5v7H42v-3.5h7V35H38.5v-7H28Zm7 7h-3.5v-3.5H35V35Zm14 7h-3.5v3.5h-7V49H49v-7Zm-14 7v-3.5h-7V49h7Z" fill="#fff"/><path d="M42 31.5h7V28h-7v3.5Z" fill="#fff"/></svg>