<svg width="190" height="190" xmlns="http://www.w3.org/2000/svg" viewBox="210 23 90 110" preserveAspectRatio="xMidYMid">
  <defs>
    <linearGradient id="editing-outline-gradient" x1="-.414" x2="1.414" y1=".093" y2=".907">
      <stop offset="0" stop-color="#fff"/>
      <stop offset="1" stop-color="#fff"/>
    </linearGradient>
    <filter id="editing-outline" x="-100%" y="-100%" width="300%" height="300%">
      <feMorphology in="SourceGraphic" operator="dilate" radius="1" result="outline"/>
      <feComposite operator="out" in="outline" in2="SourceAlpha"/>
    </filter>
  </defs>
  <g filter="url(#editing-outline)">
    <path d="M40.6-80.22Q29.54-66.36 24.64-52.5h.14q19.46 0 22.33.07 2.87.07 3.15-.21.28-.28.42-.7-2.38-17.22-3.78-23.45t-2.8-6.23q-1.4 0-3.5 2.8ZM28.14-14.28l3.08-.56q1.4 0 1.4 1.54 0 4.9-1.96 8.26-1.96 3.36-4.9 4.76Q21 2.1 17.64 2.1q-6.44 0-9.66-4.83-3.22-4.83-3.22-14.56t5.32-25.27H1.96q-1.54 0-1.54-1.54t2.38-4.97q2.38-3.43 5.04-3.43h6.3q9.94-22.12 23.38-38.22 3.5-4.2 8.61-7.84 5.11-3.64 7.91-3.64t4.2 2.52q3.64 5.88 8.54 42.98 1.68 15.96 5.81 32.97 4.13 17.01 7.63 19.81.84.56.84 1.4 0 2.1-5.95 3.92-5.95 1.82-9.1 1.82-3.15 0-4.83-.77-1.68-.77-2.1-1.61-2.52-5.46-5.04-26.04l-.84-6.58q-.56-6.58-1.12-9.94l-.98-.7-29.26-.14q-1.68 7.14-1.68 12.46 0 5.32.35 7.77.35 2.45 2.31 5.25t5.32 2.8Z" fill="url(#editing-outline-gradient)" transform="translate(210.177 127.71)"/>
  </g>
  <style></style>
</svg>
